<?xml version="1.0" encoding="UTF-8" standalone="no"?>
<!-- Created with Inkscape (http://www.inkscape.org/) -->

<svg
   xmlns:dc="http://purl.org/dc/elements/1.1/"
   xmlns:cc="http://creativecommons.org/ns#"
   xmlns:rdf="http://www.w3.org/1999/02/22-rdf-syntax-ns#"
   xmlns:svg="http://www.w3.org/2000/svg"
   xmlns="http://www.w3.org/2000/svg"
   xmlns:sodipodi="http://sodipodi.sourceforge.net/DTD/sodipodi-0.dtd"
   xmlns:inkscape="http://www.inkscape.org/namespaces/inkscape"
   width="744.09448819"
   height="1052.3622047"
   id="svg2"
   version="1.1"
   inkscape:version="0.47pre4 r22446"
   sodipodi:docname="New document 1">
  <defs
     id="defs4">
    <inkscape:perspective
       sodipodi:type="inkscape:persp3d"
       inkscape:vp_x="0 : 526.18109 : 1"
       inkscape:vp_y="0 : 1000 : 0"
       inkscape:vp_z="744.09448 : 526.18109 : 1"
       inkscape:persp3d-origin="372.04724 : 350.78739 : 1"
       id="perspective10" />
  </defs>
  <sodipodi:namedview
     id="base"
     pagecolor="#ffffff"
     bordercolor="#666666"
     borderopacity="1.0"
     inkscape:pageopacity="0.0"
     inkscape:pageshadow="2"
     inkscape:zoom="0.7"
     inkscape:cx="394.43875"
     inkscape:cy="582.70614"
     inkscape:document-units="px"
     inkscape:current-layer="layer1"
     showgrid="false"
     inkscape:window-width="1280"
     inkscape:window-height="999"
     inkscape:window-x="1280"
     inkscape:window-y="0"
     inkscape:window-maximized="1" />
  <metadata
     id="metadata7">
    <rdf:RDF>
      <cc:Work
         rdf:about="">
        <dc:format>image/svg+xml</dc:format>
        <dc:type
           rdf:resource="http://purl.org/dc/dcmitype/StillImage" />
        <dc:title></dc:title>
      </cc:Work>
    </rdf:RDF>
  </metadata>
  <g
     inkscape:label="Layer 1"
     inkscape:groupmode="layer"
     id="layer1">
    <rect
       style="fill:none;stroke:#000000;stroke-width:0.87805903"
       id="rect2816"
       width="277.26477"
       height="24.407656"
       x="382.79614"
       y="55.158344" />
    <rect
       y="87.935829"
       x="382.71649"
       height="24.566986"
       width="184.56697"
       id="rect2818"
       style="fill:none;stroke:#000000;stroke-width:0.71873075" />
    <rect
       y="120.75689"
       x="382.68042"
       height="24.639154"
       width="148.92485"
       id="rect2820"
       style="fill:none;stroke:#000000;stroke-width:0.64656144" />
    <rect
       style="fill:none;stroke:#000000;stroke-width:0.68794662"
       id="rect2822"
       width="168.88347"
       height="24.597769"
       x="382.70111"
       y="153.63472" />
    <rect
       y="260.79572"
       x="379.86209"
       height="24.561533"
       width="187.41866"
       id="rect2824"
       style="fill:none;stroke:#000000;stroke-width:0.72418159" />
    <rect
       style="fill:none;stroke:#000000"
       id="rect2826"
       width="361.42856"
       height="24.285715"
       x="380"
       y="293.79077" />
    <rect
       style="fill:none;stroke:#000000;stroke-width:0.52476174"
       id="rect2828"
       width="97.61808"
       height="24.760952"
       x="379.76236"
       y="326.41028" />
    <rect
       y="359.22162"
       x="379.71658"
       height="24.85251"
       width="66.281067"
       id="rect2830"
       style="fill:none;stroke:#000000;stroke-width:0.43320474" />
    <rect
       y="392.96808"
       x="379.74875"
       height="24.788206"
       width="87.645325"
       id="rect2832"
       style="fill:none;stroke:#000000;stroke-width:0.49750823" />
    <rect
       style="fill:none;stroke:#000000;stroke-width:0.71873075"
       id="rect2834"
       width="184.56697"
       height="24.566986"
       x="381.28793"
       y="483.07867" />
    <rect
       style="fill:none;stroke:#000000;stroke-width:0.94214916"
       id="rect2836"
       width="320.05783"
       height="24.343567"
       x="381.39963"
       y="516.04761" />
    <rect
       y="548.59137"
       x="381.08627"
       height="24.970306"
       width="34.970291"
       id="rect2838"
       style="fill:none;stroke:#000000;stroke-width:0.31540957" />
    <rect
       style="fill:none;stroke:#000000;stroke-width:0.72418159"
       id="rect2840"
       width="187.41866"
       height="24.561533"
       x="381.29065"
       y="630.22437" />
    <rect
       y="691.61414"
       x="382.68042"
       height="24.639154"
       width="148.92485"
       id="rect2842"
       style="fill:none;stroke:#000000;stroke-width:0.64656144" />
    <rect
       y="750.20044"
       x="382.69531"
       height="24.609324"
       width="163.18074"
       id="rect2844"
       style="fill:none;stroke:#000000;stroke-width:0.67639071" />
    <rect
       style="fill:none;stroke:#000000;stroke-width:0.43320474"
       id="rect2846"
       width="66.281067"
       height="24.85251"
       x="382.57376"
       y="782.93597" />
    <rect
       style="fill:none;stroke:#000000;stroke-width:1.63076437"
       id="rect2848"
       width="95.083519"
       height="569.36926"
       x="20.315382"
       y="82.677574" />
    <path
       style="fill:none;stroke:#000000;stroke-width:1px;stroke-linecap:butt;stroke-linejoin:miter;stroke-opacity:1"
       d="m 102.85714,125.21933 255.71429,-11.42857 0,0 -1.42857,1.42857"
       id="path2850" />
    <path
       style="fill:none;stroke:#000000;stroke-width:1px;stroke-linecap:butt;stroke-linejoin:miter;stroke-opacity:1"
       d="M 98.571428,249.50504 354.28571,320.93361"
       id="path2852" />
    <path
       style="fill:none;stroke:#000000;stroke-width:1px;stroke-linecap:butt;stroke-linejoin:miter;stroke-opacity:1"
       d="M 94.285714,388.07647 348.57143,512.36219"
       id="path2854" />
    <path
       style="fill:none;stroke:#000000;stroke-width:1px;stroke-linecap:butt;stroke-linejoin:miter;stroke-opacity:1"
       d="m 100,495.21933 274.28571,140 -1.42857,-4.28572"
       id="path2856" />
    <path
       style="fill:none;stroke:#000000;stroke-width:1px;stroke-linecap:butt;stroke-linejoin:miter;stroke-opacity:1"
       d="M 98.571428,558.07647 372.85714,696.6479"
       id="path2858" />
    <path
       style="fill:none;stroke:#000000;stroke-width:1px;stroke-linecap:butt;stroke-linejoin:miter;stroke-opacity:1"
       d="M 95.714285,616.6479 367.14286,770.93361"
       id="path2860" />
    <path
       style="fill:none;stroke:#000000;stroke-width:1px;stroke-linecap:butt;stroke-linejoin:miter;stroke-opacity:1"
       d="m 65.714286,80.933611 2.857143,572.857139 0,-2.85714"
       id="path2862" />
    <path
       style="fill:none;stroke:#000000;stroke-width:1px;stroke-linecap:butt;stroke-linejoin:miter;stroke-opacity:1"
       d="m 20,183.79075 94.28571,4.28572"
       id="path2864" />
    <path
       style="fill:none;stroke:#000000;stroke-width:1px;stroke-linecap:butt;stroke-linejoin:miter;stroke-opacity:1"
       d="m 24.285714,306.6479 91.428576,10"
       id="path2866" />
    <path
       style="fill:none;stroke:#000000;stroke-width:1px;stroke-linecap:butt;stroke-linejoin:miter;stroke-opacity:1"
       d="m 22.857143,435.21933 92.857147,8.57142"
       id="path2868" />
    <path
       style="fill:none;stroke:#000000;stroke-width:1px;stroke-linecap:butt;stroke-linejoin:miter;stroke-opacity:1"
       d="M 117.14286,535.21933 18.571429,530.93361"
       id="path2870" />
    <path
       style="fill:none;stroke:#000000;stroke-width:1px;stroke-linecap:butt;stroke-linejoin:miter;stroke-opacity:1"
       d="m 17.142857,576.6479 98.571433,18.57143"
       id="path2872" />
    <text
       xml:space="preserve"
       style="font-size:29.36098671px;font-style:normal;font-weight:normal;fill:#000000;fill-opacity:1;stroke:none;font-family:Bitstream Vera Sans"
       x="-56.39465"
       y="64.474991"
       id="text2874"
       transform="matrix(0.43984839,-0.88634979,0.91731816,0.42499925,0,0)"><tspan
         sodipodi:role="line"
         id="tspan2876"
         x="-56.39465"
         y="64.474991">sorted</tspan></text>
    <path
       style="fill:#008000;stroke:#000000;stroke-width:1.42857146"
       d="m 41.776382,183.57701 c -10.214286,-0.56309 -18.732143,-1.0971 -18.928572,-1.18667 -0.196428,-0.0896 -0.357142,-22.34144 -0.357142,-49.44858 l 0,-49.285714 20.496015,0 20.496017,0 0.926059,16.071429 c 0.509331,8.839285 0.928981,31.660715 0.932554,50.714285 0.006,32.13519 -0.174468,34.62535 -2.493503,34.40096 -1.375,-0.13305 -10.857142,-0.70262 -21.071428,-1.26571 z"
       id="path2878" />
    <path
       style="fill:none;stroke:#000000;stroke-width:1px;stroke-linecap:butt;stroke-linejoin:miter;stroke-opacity:1"
       d="m 31.428571,306.6479 -11.428571,0 -2.857143,0"
       id="path2882" />
    <path
       style="fill:none;stroke:#000000;stroke-width:1px;stroke-linecap:butt;stroke-linejoin:miter;stroke-opacity:1"
       d="M 28.571429,435.21933 17.142857,432.36218"
       id="path2884" />
    <path
       style="fill:#008000;stroke:#000000;stroke-width:1.42857146"
       d="m 41.776382,530.74651 c -10.214286,-0.53242 -18.732143,-1.05987 -18.928572,-1.17211 -0.196428,-0.11224 -0.357142,-21.171 -0.357142,-46.79724 l 0,-46.59318 7.5,0.83179 c 4.125,0.45748 12,1.20053 17.5,1.65123 5.5,0.4507 12.089285,1.14389 14.642857,1.54041 l 4.642857,0.72096 0,45.64955 0,45.64955 -3.214286,-0.25646 c -1.767857,-0.14106 -11.571428,-0.69208 -21.785714,-1.2245 z"
       id="path2886" />
    <path
       style="fill:#008000;stroke:#000000;stroke-width:1.42857146"
       d="m 51.776382,581.94066 c -7.857143,-1.45706 -17.660714,-3.31988 -21.785714,-4.13961 l -7.5,-1.49043 0,-22.03174 0,-22.03174 21.785714,0.90309 c 11.982143,0.4967 21.961636,1.04319 22.176653,1.21444 0.215015,0.17124 0.215015,11.54196 0,25.26826 l -0.390939,24.95692 -14.285714,-2.64919 z"
       id="path2888" />
    <rect
       y="36.586914"
       x="-400.061"
       height="24.407656"
       width="277.26477"
       id="rect2890"
       style="fill:none;stroke:#000000;stroke-width:0.87805903" />
    <rect
       style="fill:none;stroke:#000000;stroke-width:0.71873075"
       id="rect2892"
       width="184.56697"
       height="24.566986"
       x="-400.14066"
       y="69.364403" />
    <rect
       style="fill:none;stroke:#000000;stroke-width:0.64656144"
       id="rect2894"
       width="148.92485"
       height="24.639154"
       x="-400.17673"
       y="102.18546" />
    <rect
       y="135.06329"
       x="-400.15604"
       height="24.597769"
       width="168.88347"
       id="rect2896"
       style="fill:none;stroke:#000000;stroke-width:0.68794662" />
    <rect
       style="fill:none;stroke:#000000;stroke-width:0.72418159"
       id="rect2898"
       width="187.41866"
       height="24.561533"
       x="-402.99506"
       y="168.22429" />
    <rect
       y="201.21933"
       x="-402.85715"
       height="24.285715"
       width="361.42856"
       id="rect2900"
       style="fill:none;stroke:#000000" />
    <rect
       y="233.83884"
       x="-403.09479"
       height="24.760952"
       width="97.61808"
       id="rect2902"
       style="fill:none;stroke:#000000;stroke-width:0.52476174" />
    <rect
       style="fill:none;stroke:#000000;stroke-width:0.43320474"
       id="rect2904"
       width="66.281067"
       height="24.85251"
       x="-403.14056"
       y="266.65018" />
    <rect
       style="fill:none;stroke:#000000;stroke-width:0.49750823"
       id="rect2906"
       width="87.645325"
       height="24.788206"
       x="-403.1084"
       y="300.39664" />
    <rect
       y="332.50723"
       x="-401.56921"
       height="24.566986"
       width="184.56697"
       id="rect2908"
       style="fill:none;stroke:#000000;stroke-width:0.71873075" />
    <rect
       y="365.47617"
       x="-401.45752"
       height="24.343567"
       width="320.05783"
       id="rect2910"
       style="fill:none;stroke:#000000;stroke-width:0.94214916" />
    <rect
       style="fill:none;stroke:#000000;stroke-width:0.31540957"
       id="rect2912"
       width="34.970291"
       height="24.970306"
       x="-401.77087"
       y="398.01996" />
    <rect
       y="429.65295"
       x="-401.5665"
       height="24.561533"
       width="187.41866"
       id="rect2914"
       style="fill:none;stroke:#000000;stroke-width:0.72418159" />
    <rect
       style="fill:none;stroke:#000000;stroke-width:0.64656144"
       id="rect2916"
       width="148.92485"
       height="24.639154"
       x="-400.17673"
       y="463.04272" />
    <rect
       style="fill:none;stroke:#000000;stroke-width:0.67639071"
       id="rect2918"
       width="163.18074"
       height="24.609324"
       x="-400.16183"
       y="495.62903" />
    <rect
       y="528.36456"
       x="-400.28339"
       height="24.85251"
       width="66.281067"
       id="rect2920"
       style="fill:none;stroke:#000000;stroke-width:0.43320474" />
    <rect
       y="18.391859"
       x="-648.25604"
       height="569.36926"
       width="95.083519"
       id="rect2922"
       style="fill:none;stroke:#000000;stroke-width:1.63076437" />
    <path
       style="fill:#d40000;stroke:#000000;stroke-width:1.42857146"
       d="m 53.180759,308.61303 c -1.178572,-0.23423 -8.732143,-1.22794 -16.785715,-2.20825 l -14.642857,-1.78238 0,-59.81667 0,-59.81667 21.071429,0.9574 c 11.589286,0.52657 21.181807,1.03345 21.316714,1.1264 0.1349,0.093 0.71355,27.6479 1.285873,61.23323 l 1.040589,61.06424 -5.571588,-0.16571 c -3.064374,-0.0911 -6.535874,-0.35736 -7.714445,-0.59159 z"
       id="path2924" />
    <path
       style="fill:#d40000;stroke:#000000;stroke-width:1.42857146"
       d="m 42.466473,435.82627 c -8.642857,-0.97908 -16.839286,-2.25812 -18.214286,-2.84231 -2.326225,-0.98834 -2.5,-5.37109 -2.5,-63.05218 0,-58.09046 0.157266,-61.98924 2.5,-61.97761 1.375,0.007 10.535715,0.96553 20.357143,2.13045 9.821429,1.16491 18.660714,2.12361 19.642857,2.13044 1.401327,0.01 1.785715,13.54284 1.785715,62.86956 l 0,62.85714 -3.928572,-0.16768 c -2.160714,-0.0922 -11,-0.96873 -19.642857,-1.94781 z"
       id="path2926" />
    <path
       style="fill:#d40000;stroke:#000000;stroke-width:1.42857146"
       d="m 21.752187,615.08462 c 0,-33.09409 0.183414,-35.70796 2.5,-35.62802 1.375,0.0475 11.5,1.82916 22.5,3.95935 l 20,3.87308 0.384475,31.75494 0.384472,31.75493 -22.884472,0 -22.884475,0 0,-35.71428 z"
       id="path2928" />
    <text
       transform="matrix(0.43984839,-0.88634979,0.91731816,0.42499925,0,0)"
       id="text2930"
       y="-570.95532"
       x="-290.16272"
       style="font-size:29.36098671px;font-style:normal;font-weight:normal;fill:#000000;fill-opacity:1;stroke:none;font-family:Bitstream Vera Sans"
       xml:space="preserve"><tspan
         y="-570.95532"
         x="-290.16272"
         id="tspan2932"
         sodipodi:role="line">sorted</tspan></text>
    <path
       style="fill:none;stroke:#000000;stroke-width:1px;stroke-linecap:butt;stroke-linejoin:miter;stroke-opacity:1"
       d="m -602.85714,18.076468 1.42857,574.285712 0,1.42857"
       id="path2934" />
    <path
       style="fill:none;stroke:#000000;stroke-width:1px;stroke-linecap:butt;stroke-linejoin:miter;stroke-opacity:1"
       d="m -572.85714,289.50504 124.28571,-2.85714"
       id="path2936" />
    <path
       style="fill:#d40000;stroke:#000000;stroke-width:1.42857146"
       d="m -646.81924,302.94176 0,-283.571428 21.42857,0 21.42857,0 6e-4,96.071428 c 3.3e-4,52.83929 0.42809,180.44643 0.95058,283.57143 l 0.94997,187.5 -22.37914,0 -22.37915,0 0,-283.57143 z"
       id="path2938" />
    <text
       xml:space="preserve"
       style="font-size:40px;font-style:normal;font-weight:normal;fill:#000000;fill-opacity:1;stroke:none;font-family:Bitstream Vera Sans"
       x="321.42856"
       y="63.790752"
       id="text2940"><tspan
         sodipodi:role="line"
         id="tspan2942"
         x="321.42856"
         y="63.790752">a</tspan></text>
    <text
       id="text2944"
       y="270.93362"
       x="327.14285"
       style="font-size:40px;font-style:normal;font-weight:normal;fill:#000000;fill-opacity:1;stroke:none;font-family:Bitstream Vera Sans"
       xml:space="preserve"><tspan
         y="270.93362"
         x="327.14285"
         id="tspan2946"
         sodipodi:role="line">b</tspan></text>
    <text
       xml:space="preserve"
       style="font-size:40px;font-style:normal;font-weight:normal;fill:#000000;fill-opacity:1;stroke:none;font-family:Bitstream Vera Sans"
       x="334.28571"
       y="482.36218"
       id="text2948"><tspan
         sodipodi:role="line"
         id="tspan2950"
         x="334.28571"
         y="482.36218">c</tspan></text>
    <text
       id="text2952"
       y="618.07648"
       x="334.28571"
       style="font-size:40px;font-style:normal;font-weight:normal;fill:#000000;fill-opacity:1;stroke:none;font-family:Bitstream Vera Sans"
       xml:space="preserve"><tspan
         y="618.07648"
         x="334.28571"
         id="tspan2954"
         sodipodi:role="line">d</tspan></text>
    <text
       xml:space="preserve"
       style="font-size:40px;font-style:normal;font-weight:normal;fill:#000000;fill-opacity:1;stroke:none;font-family:Bitstream Vera Sans"
       x="340"
       y="692.36218"
       id="text2956"><tspan
         sodipodi:role="line"
         id="tspan2958"
         x="340"
         y="692.36218">e</tspan></text>
    <text
       id="text2960"
       y="766.64789"
       x="341.42856"
       style="font-size:40px;font-style:normal;font-weight:normal;fill:#000000;fill-opacity:1;stroke:none;font-family:Bitstream Vera Sans"
       xml:space="preserve"><tspan
         y="766.64789"
         x="341.42856"
         id="tspan2962"
         sodipodi:role="line">f</tspan></text>
    <rect
       style="fill:none;stroke:#000000;stroke-width:0.72418159"
       id="rect2972"
       width="187.41866"
       height="24.561533"
       x="1277.005"
       y="217.93855" />
    <rect
       y="250.93361"
       x="1277.1428"
       height="24.285715"
       width="361.42856"
       id="rect2974"
       style="fill:none;stroke:#000000" />
    <rect
       y="283.55313"
       x="1276.9053"
       height="24.760952"
       width="97.61808"
       id="rect2976"
       style="fill:none;stroke:#000000;stroke-width:0.52476174" />
    <rect
       style="fill:none;stroke:#000000;stroke-width:0.43320474"
       id="rect2978"
       width="66.281067"
       height="24.85251"
       x="1279.7167"
       y="356.36447" />
    <rect
       style="fill:none;stroke:#000000;stroke-width:0.49750823"
       id="rect2980"
       width="87.645325"
       height="24.788206"
       x="1282.6058"
       y="411.53949" />
    <rect
       y="477.36438"
       x="1279.8594"
       height="24.566986"
       width="184.56697"
       id="rect2982"
       style="fill:none;stroke:#000000;stroke-width:0.71873075" />
    <rect
       y="537.4762"
       x="1281.3997"
       height="24.343567"
       width="320.05783"
       id="rect2984"
       style="fill:none;stroke:#000000;stroke-width:0.94214916" />
    <rect
       style="fill:none;stroke:#000000;stroke-width:0.31540957"
       id="rect2986"
       width="34.970291"
       height="24.970306"
       x="1281.0863"
       y="570.01996" />
    <rect
       y="651.65295"
       x="1157.0049"
       height="24.561533"
       width="187.41866"
       id="rect2988"
       style="fill:none;stroke:#000000;stroke-width:0.72418159" />
    <rect
       style="fill:none;stroke:#000000;stroke-width:0.64656144"
       id="rect2990"
       width="148.92485"
       height="24.639154"
       x="1158.3947"
       y="713.04272" />
    <rect
       style="fill:none;stroke:#000000;stroke-width:0.67639071"
       id="rect2992"
       width="163.18074"
       height="24.609324"
       x="1284.1238"
       y="771.62903" />
    <rect
       y="827.22168"
       x="1285.4309"
       height="24.85251"
       width="66.281067"
       id="rect2994"
       style="fill:none;stroke:#000000;stroke-width:0.43320474" />
    <rect
       y="104.10615"
       x="796.02966"
       height="569.36926"
       width="95.083519"
       id="rect2996"
       style="fill:none;stroke:#000000;stroke-width:1.63076437" />
    <path
       id="path2998"
       d="m 878.57143,146.6479 255.71427,-11.42857 0,0 -1.4286,1.42857"
       style="fill:none;stroke:#000000;stroke-width:1px;stroke-linecap:butt;stroke-linejoin:miter;stroke-opacity:1" />
    <path
       id="path3000"
       d="M 874.28571,270.93361 1130,342.36218"
       style="fill:none;stroke:#000000;stroke-width:1px;stroke-linecap:butt;stroke-linejoin:miter;stroke-opacity:1" />
    <path
       id="path3002"
       d="m 870,409.50504 254.2857,124.28572"
       style="fill:none;stroke:#000000;stroke-width:1px;stroke-linecap:butt;stroke-linejoin:miter;stroke-opacity:1" />
    <path
       id="path3004"
       d="m 875.71429,516.6479 274.28571,140 -1.4286,-4.28572"
       style="fill:none;stroke:#000000;stroke-width:1px;stroke-linecap:butt;stroke-linejoin:miter;stroke-opacity:1" />
    <path
       id="path3006"
       d="M 874.28571,579.50504 1148.5714,718.07647"
       style="fill:none;stroke:#000000;stroke-width:1px;stroke-linecap:butt;stroke-linejoin:miter;stroke-opacity:1" />
    <path
       id="path3008"
       d="M 871.42857,638.07647 1142.8571,792.36218"
       style="fill:none;stroke:#000000;stroke-width:1px;stroke-linecap:butt;stroke-linejoin:miter;stroke-opacity:1" />
    <path
       id="path3010"
       d="m 841.42857,102.36218 2.85715,572.85714 0,-2.85714"
       style="fill:none;stroke:#000000;stroke-width:1px;stroke-linecap:butt;stroke-linejoin:miter;stroke-opacity:1" />
    <path
       id="path3012"
       d="M 795.71429,205.21932 890,209.50504"
       style="fill:none;stroke:#000000;stroke-width:1px;stroke-linecap:butt;stroke-linejoin:miter;stroke-opacity:1" />
    <path
       id="path3014"
       d="m 800,328.07647 91.42858,10"
       style="fill:none;stroke:#000000;stroke-width:1px;stroke-linecap:butt;stroke-linejoin:miter;stroke-opacity:1" />
    <path
       id="path3016"
       d="m 798.57143,456.6479 92.85715,8.57142"
       style="fill:none;stroke:#000000;stroke-width:1px;stroke-linecap:butt;stroke-linejoin:miter;stroke-opacity:1" />
    <path
       id="path3018"
       d="m 892.85715,556.6479 -98.57143,-4.28572"
       style="fill:none;stroke:#000000;stroke-width:1px;stroke-linecap:butt;stroke-linejoin:miter;stroke-opacity:1" />
    <path
       id="path3020"
       d="m 792.85714,598.07647 98.57144,18.57143"
       style="fill:none;stroke:#000000;stroke-width:1px;stroke-linecap:butt;stroke-linejoin:miter;stroke-opacity:1" />
    <text
       transform="matrix(0.43984839,-0.88634979,0.91731816,0.42499925,0,0)"
       id="text3022"
       y="761.45453"
       x="253.62653"
       style="font-size:29.36098671px;font-style:normal;font-weight:normal;fill:#000000;fill-opacity:1;stroke:none;font-family:Bitstream Vera Sans"
       xml:space="preserve"><tspan
         y="761.45453"
         x="253.62653"
         id="tspan3024"
         sodipodi:role="line">sorted</tspan></text>
    <path
       id="path3026"
       d="m 817.49067,205.00558 c -10.21429,-0.56309 -18.73214,-1.0971 -18.92857,-1.18667 -0.19643,-0.0896 -0.35715,-22.34144 -0.35715,-49.44858 l 0,-49.28571 20.49602,0 20.49602,0 0.92606,16.07143 c 0.50933,8.83928 0.92898,31.66071 0.93255,50.71428 0.006,32.13519 -0.17447,34.62535 -2.4935,34.40096 -1.375,-0.13305 -10.85715,-0.70262 -21.07143,-1.26571 z"
       style="fill:#008000;stroke:#000000;stroke-width:1.42857146" />
    <path
       id="path3028"
       d="m 807.14286,328.07647 -11.42857,0 -2.85715,0"
       style="fill:none;stroke:#000000;stroke-width:1px;stroke-linecap:butt;stroke-linejoin:miter;stroke-opacity:1" />
    <path
       id="path3030"
       d="m 804.28572,456.6479 -11.42858,-2.85715"
       style="fill:none;stroke:#000000;stroke-width:1px;stroke-linecap:butt;stroke-linejoin:miter;stroke-opacity:1" />
    <path
       id="path3032"
       d="m 817.49067,552.17508 c -10.21429,-0.53242 -18.73214,-1.05987 -18.92857,-1.17211 -0.19643,-0.11224 -0.35715,-21.171 -0.35715,-46.79724 l 0,-46.59318 7.5,0.83179 c 4.125,0.45748 12,1.20053 17.5,1.65123 5.5,0.4507 12.08929,1.14389 14.64286,1.54041 l 4.64286,0.72096 0,45.64955 0,45.64955 -3.21429,-0.25646 c -1.76785,-0.14106 -11.57143,-0.69208 -21.78571,-1.2245 z"
       style="fill:#008000;stroke:#000000;stroke-width:1.42857146" />
    <path
       id="path3034"
       d="m 827.49067,603.36923 c -7.85714,-1.45706 -17.66072,-3.31988 -21.78572,-4.13961 l -7.5,-1.49043 0,-22.03174 0,-22.03174 21.78572,0.90309 c 11.98214,0.4967 21.96163,1.04319 22.17665,1.21444 0.21502,0.17124 0.21502,11.54196 0,25.26826 l -0.39094,24.95692 -14.28571,-2.64919 z"
       style="fill:#008000;stroke:#000000;stroke-width:1.42857146" />
    <path
       id="path3036"
       d="m 828.89505,330.0416 c -1.17858,-0.23423 -8.73215,-1.22794 -16.78572,-2.20825 l -14.64286,-1.78238 0,-59.81667 0,-59.81667 21.07143,0.9574 c 11.58929,0.52657 21.18181,1.03345 21.31672,1.1264 0.1349,0.093 0.71355,27.6479 1.28587,61.23323 l 1.04059,61.06424 -5.57159,-0.16571 c -3.06437,-0.0911 -6.53587,-0.35736 -7.71444,-0.59159 z"
       style="fill:#d40000;stroke:#000000;stroke-width:1.42857146" />
    <path
       id="path3038"
       d="m 818.18076,457.25484 c -8.64286,-0.97908 -16.83929,-2.25812 -18.21429,-2.84231 -2.32622,-0.98834 -2.5,-5.37109 -2.5,-63.05218 0,-58.09046 0.15727,-61.98924 2.5,-61.97761 1.375,0.007 10.53572,0.96553 20.35715,2.13045 9.82143,1.16491 18.66071,2.12361 19.64285,2.13044 1.40133,0.01 1.78572,13.54284 1.78572,62.86956 l 0,62.85714 -3.92857,-0.16768 c -2.16072,-0.0922 -11,-0.96873 -19.64286,-1.94781 z"
       style="fill:#d40000;stroke:#000000;stroke-width:1.42857146" />
    <path
       id="path3040"
       d="m 797.46647,636.51319 c 0,-33.09409 0.18342,-35.70796 2.5,-35.62802 1.375,0.0475 11.5,1.82916 22.5,3.95935 l 20,3.87308 0.38448,31.75494 0.38447,31.75493 -22.88447,0 -22.88448,0 0,-35.71428 z"
       style="fill:#d40000;stroke:#000000;stroke-width:1.42857146" />
    <text
       id="text3042"
       y="85.219322"
       x="1097.1428"
       style="font-size:40px;font-style:normal;font-weight:normal;fill:#000000;fill-opacity:1;stroke:none;font-family:Bitstream Vera Sans"
       xml:space="preserve"><tspan
         y="85.219322"
         x="1097.1428"
         id="tspan3044"
         sodipodi:role="line">a</tspan></text>
    <text
       xml:space="preserve"
       style="font-size:40px;font-style:normal;font-weight:normal;fill:#000000;fill-opacity:1;stroke:none;font-family:Bitstream Vera Sans"
       x="1102.8572"
       y="292.36218"
       id="text3046"><tspan
         sodipodi:role="line"
         id="tspan3048"
         x="1102.8572"
         y="292.36218">b</tspan></text>
    <text
       id="text3050"
       y="503.79074"
       x="1110"
       style="font-size:40px;font-style:normal;font-weight:normal;fill:#000000;fill-opacity:1;stroke:none;font-family:Bitstream Vera Sans"
       xml:space="preserve"><tspan
         y="503.79074"
         x="1110"
         id="tspan3052"
         sodipodi:role="line">c</tspan></text>
    <text
       xml:space="preserve"
       style="font-size:40px;font-style:normal;font-weight:normal;fill:#000000;fill-opacity:1;stroke:none;font-family:Bitstream Vera Sans"
       x="1110"
       y="639.50507"
       id="text3054"><tspan
         sodipodi:role="line"
         id="tspan3056"
         x="1110"
         y="639.50507">d</tspan></text>
    <text
       id="text3058"
       y="713.79077"
       x="1115.7142"
       style="font-size:40px;font-style:normal;font-weight:normal;fill:#000000;fill-opacity:1;stroke:none;font-family:Bitstream Vera Sans"
       xml:space="preserve"><tspan
         y="713.79077"
         x="1115.7142"
         id="tspan3060"
         sodipodi:role="line">e</tspan></text>
    <text
       xml:space="preserve"
       style="font-size:40px;font-style:normal;font-weight:normal;fill:#000000;fill-opacity:1;stroke:none;font-family:Bitstream Vera Sans"
       x="1117.1428"
       y="788.07648"
       id="text3062"><tspan
         sodipodi:role="line"
         id="tspan3064"
         x="1117.1428"
         y="788.07648">f</tspan></text>
    <rect
       style="fill:#ffffff;stroke:#000000;stroke-width:1.39403403"
       id="rect3070"
       width="66.748825"
       height="218.1774"
       x="1135.9113"
       y="218.27348" />
    <rect
       style="fill:#ffffff;stroke:#000000;stroke-width:1.39442801"
       id="rect3072"
       width="72.462715"
       height="118.177"
       x="1134.483"
       y="468.27368" />
    <rect
       style="fill:#d40000;stroke:#000000"
       id="rect3074"
       width="35.714287"
       height="87.14286"
       x="1154.2858"
       y="766.64789" />
    <path
       style="fill:#008000;stroke:#000000;stroke-width:1.42857146"
       d="m 1157.4999,663.65605 0,-11.42858 92.8572,0 92.8571,0 0,11.42858 0,11.42857 -92.8571,0 -92.8572,0 0,-11.42857 z"
       id="path3076" />
    <path
       style="fill:#008000;stroke:#000000;stroke-width:1.42857146"
       d="m 1158.9285,725.08462 0,-11.42857 73.5714,0 73.5715,0 0,11.42857 0,11.42857 -73.5715,0 -73.5714,0 0,-11.42857 z"
       id="path3078" />
    <rect
       y="49.444057"
       x="1154.2247"
       height="24.407656"
       width="277.26477"
       id="rect3080"
       style="fill:none;stroke:#000000;stroke-width:0.87805903" />
    <rect
       style="fill:none;stroke:#000000;stroke-width:0.71873075"
       id="rect3082"
       width="184.56697"
       height="24.566986"
       x="1154.145"
       y="82.221542" />
    <rect
       style="fill:none;stroke:#000000;stroke-width:0.64656144"
       id="rect3084"
       width="148.92485"
       height="24.639154"
       x="1154.109"
       y="115.0426" />
    <rect
       y="147.92044"
       x="1154.1296"
       height="24.597769"
       width="168.88347"
       id="rect3086"
       style="fill:none;stroke:#000000;stroke-width:0.68794662" />
    <path
       style="fill:#008000;stroke:#000000;stroke-width:1.42857146"
       d="m 1154.6428,61.513189 0,-10.714286 137.8571,0 137.8572,0 0,10.714286 0,10.714286 -137.8572,0 -137.8571,0 0,-10.714286 z"
       id="path3088" />
    <path
       style="fill:#008000;stroke:#000000;stroke-width:1.42857146"
       d="m 1199.9999,105.44247 c 25.3393,-0.21859 66.8036,-0.21859 92.1429,0 25.3393,0.21858 4.6071,0.39743 -46.0714,0.39743 -50.6786,0 -71.4108,-0.17885 -46.0715,-0.39743 z"
       id="path3090" />
    <path
       style="fill:#008000;stroke:#000000;stroke-width:1.42857146"
       d="m 1154.6428,94.013189 0,-10.357143 91.4286,0 91.4285,0 0,10.357143 0,10.357141 -91.4285,0 -91.4286,0 0,-10.357141 z"
       id="path3092" />
    <path
       style="fill:#008000;stroke:#000000;stroke-width:1.42857146"
       d="m 1154.6428,127.94176 0,-11.42857 73.5714,0 73.5714,0 0,11.42857 0,11.42857 -73.5714,0 -73.5714,0 0,-11.42857 z"
       id="path3094" />
    <path
       style="fill:#008000;stroke:#000000;stroke-width:1.42857146"
       d="m 1154.6428,160.08462 0,-10.71429 83.5714,0 83.5714,0 0,10.71429 0,10.71428 -83.5714,0 -83.5714,0 0,-10.71428 z"
       id="path3096" />
    <path
       style="fill:#008000;stroke:#000000;stroke-width:1.42857146"
       d="m 383.21422,67.227475 0,-10.714286 137.85714,0 137.85715,0 0,10.714286 0,10.714285 -137.85715,0 -137.85714,0 0,-10.714285 z"
       id="path3098" />
    <path
       style="fill:#008000;stroke:#000000;stroke-width:1.42857146"
       d="m 383.21422,100.08462 0,-10.714288 91.42857,0 91.42857,0 0,10.714288 0,10.71428 -91.42857,0 -91.42857,0 0,-10.71428 z"
       id="path3100" />
    <path
       style="fill:#008000;stroke:#000000;stroke-width:1.42857146"
       d="m 383.21422,133.65605 0,-11.42858 73.57143,0 73.57143,0 0,11.42858 0,11.42857 -73.57143,0 -73.57143,0 0,-11.42857 z"
       id="path3102" />
    <path
       style="fill:#008000;stroke:#000000;stroke-width:1.42857146"
       d="m 383.21422,165.7989 0,-10.71428 83.57143,0 83.57143,0 0,10.71428 0,10.71429 -83.57143,0 -83.57143,0 0,-10.71429 z"
       id="path3104" />
    <path
       style="fill:#008000;stroke:#000000;stroke-width:1.42857146"
       d="m 381.78565,642.22747 0,-11.42857 92.85714,0 92.85714,0 0,11.42857 0,11.42858 -92.85714,0 -92.85714,0 0,-11.42858 z"
       id="path3106" />
    <path
       style="fill:#d40000;stroke:#000000;stroke-width:1.42857145999999990"
       d="m 383.21422,703.65605 0,-11.42858 73.57143,0 73.57143,0 0,11.42858 0,11.42857 -73.57143,0 -73.57143,0 0,-11.42857 z"
       id="path3108" />
    <path
       style="fill:#d40000;stroke:#000000;stroke-width:1.42857146"
       d="m 380.35708,272.94176 0,-10.71429 92.85714,0 92.85714,0 0,10.71429 0,10.71429 -92.85714,0 -92.85714,0 0,-10.71429 z"
       id="path3110" />
    <path
       style="fill:#d40000;stroke:#000000;stroke-width:1.42857146"
       d="m 381.78565,305.7989 0,-10.71428 179.28571,0 179.28572,0 0,10.71428 0,10.71429 -179.28572,0 -179.28571,0 0,-10.71429 z"
       id="path3112" />
    <path
       style="fill:#d40000;stroke:#000000;stroke-width:1.42857146"
       d="m 380.35708,339.37033 0,-11.42857 47.85714,0 47.85714,0 0,11.42857 0,11.42857 -47.85714,0 -47.85714,0 0,-11.42857 z"
       id="path3114" />
    <path
       style="fill:#d40000;stroke:#000000;stroke-width:1.42857146"
       d="m 380.35708,372.22747 0,-11.42857 32.14285,0 32.14286,0 0,11.42857 0,11.42858 -32.14286,0 -32.14285,0 0,-11.42858 z"
       id="path3116" />
    <path
       style="fill:#d40000;stroke:#000000;stroke-width:1.42857146"
       d="m 380.35708,405.08462 0,-11.42857 42.85714,0 42.85714,0 0,11.42857 0,11.42857 -42.85714,0 -42.85714,0 0,-11.42857 z"
       id="path3118" />
    <path
       style="fill:#d40000;stroke:#000000;stroke-width:1.42857146"
       d="m 381.78565,495.08462 0,-11.42857 91.42857,0 91.42857,0 0,11.42857 0,11.42857 -91.42857,0 -91.42857,0 0,-11.42857 z"
       id="path3120" />
    <path
       style="fill:#d40000;stroke:#000000;stroke-width:1.42857146"
       d="m 383.21422,527.94176 0,-11.42857 158.57143,0 158.57143,0 0,11.42857 0,11.42857 -158.57143,0 -158.57143,0 0,-11.42857 z"
       id="path3122" />
    <path
       style="fill:#d40000;stroke:#000000;stroke-width:1.42857146"
       d="m 381.78565,560.7989 0,-11.42857 16.42857,0 16.42857,0 0,11.42857 0,11.42857 -16.42857,0 -16.42857,0 0,-11.42857 z"
       id="path3124" />
    <path
       style="fill:#d40000;stroke:#000000;stroke-width:1.42857146"
       d="m 383.21422,762.22747 0,-11.42857 80.71429,0 80.71428,0 0,11.42857 0,11.42858 -80.71428,0 -80.71429,0 0,-11.42858 z"
       id="path3126" />
    <path
       style="fill:#008000;stroke:#000000;stroke-width:1.42857145999999990"
       d="m 383.21422,795.08462 0,-11.42857 32.14286,0 32.14285,0 0,11.42857 0,11.42857 -32.14285,0 -32.14286,0 0,-11.42857 z"
       id="path3128" />
    <path
       style="fill:#008000;stroke:#000000;stroke-width:1.42857146"
       d="m 384.64279,703.65605 0,-10 72.14286,0 72.14286,0 0,10 0,10 -72.14286,0 -72.14286,0 0,-10 z"
       id="path3130" />
    <path
       style="fill:#d40000;stroke:#000000;stroke-width:1.42857146"
       d="m 384.64279,795.08462 0,-10 30.71429,0 30.71428,0 0,10 0,10 -30.71428,0 -30.71429,0 0,-10 z"
       id="path3132" />
    <path
       style="fill:none;stroke:#000000;stroke-width:1.34216011px;stroke-linecap:butt;stroke-linejoin:miter;stroke-opacity:1"
       d="m 1134.6864,300.93361 72.0557,0"
       id="path3134" />
    <path
       style="fill:none;stroke:#000000;stroke-width:1.34697115px;stroke-linecap:butt;stroke-linejoin:miter;stroke-opacity:1"
       d="m 1133.2643,366.6479 77.7571,0"
       id="path3136" />
    <path
       style="fill:none;stroke:#000000;stroke-width:1px;stroke-linecap:butt;stroke-linejoin:miter;stroke-opacity:1"
       d="m 1130,528.07647 c 90,-1.42857 90,0 90,0"
       id="path3138" />
    <path
       style="fill:none;stroke:#000000;stroke-width:1px;stroke-linecap:butt;stroke-linejoin:miter;stroke-opacity:1"
       d="M 1147.1429,810.93361 C 1200,809.50504 1200,809.50504 1200,809.50504"
       id="path3140" />
    <path
       style="fill:none;stroke:#000000;stroke-width:1px;stroke-linecap:butt;stroke-linejoin:miter;stroke-opacity:1"
       d="m 1200,790.93361 95.7143,-5.71429"
       id="path3142" />
    <path
       style="fill:none;stroke:#000000;stroke-width:1px;stroke-linecap:butt;stroke-linejoin:miter;stroke-opacity:1"
       d="m 1201.4286,832.36218 97.1428,8.57143"
       id="path3144" />
    <path
       style="fill:#008000;stroke:#000000;stroke-width:1.42857146"
       d="m 1156.0714,788.65605 0,-20.71429 16.4286,0 16.4285,0 0,10 0,10 -5,0 c -2.75,0 -5,0.64286 -5,1.42857 0,0.78572 2.25,1.42857 5,1.42857 l 5,0 0,9.28572 0,9.28571 -16.4285,0 -16.4286,0 0,-20.71428 z"
       id="path3146" />
    <path
       style="fill:#008000;stroke:#000000;stroke-width:1.42857146"
       d="m 1156.0714,832.43405 0,-19.79342 9.6428,-0.91071 c 5.3036,-0.50089 12.6965,-0.91528 16.4286,-0.92086 l 6.7857,-0.0102 0,10.19899 0,10.19899 -7.1428,-0.84597 c -4.166,-0.49339 -7.1429,-0.27863 -7.1429,0.5153 0,0.7487 1.7679,1.37004 3.9286,1.38077 9.4994,0.0472 10.3571,0.94661 10.3571,10.8614 l 0,9.11909 -16.4285,0 -16.4286,0 0,-19.79342 z"
       id="path3148" />
    <path
       style="fill:#008000;stroke:#000000;stroke-width:1.42857145999999990"
       d="m 1136.0714,497.94176 0,-28.57143 35,0 35,0 0,28.57143 0,28.57143 -35,0 -35,0 0,-28.57143 z"
       id="path3150" />
    <path
       style="fill:#008000;stroke:#000000;stroke-width:1.42857146"
       d="m 1137.5,333.65605 0,-31.42858 32.1428,0 32.1429,0 0,31.42858 0,31.42857 -32.1429,0 -32.1428,0 0,-31.42857 z"
       id="path3152" />
    <path
       style="fill:#008000;stroke:#000000;stroke-width:1.42857146"
       d="m 1137.5,401.51319 0,-33.57143 32.1428,0 32.1429,0 0,33.57143 0,33.57143 -32.1429,0 -32.1428,0 0,-33.57143 z"
       id="path3154" />
    <path
       style="fill:#d40000;stroke:#000000;stroke-width:1.42857146"
       d="m 1137.5,259.37033 0,-40 32.1428,0 32.1429,0 0,40 0,40 -32.1429,0 -32.1428,0 0,-40 z"
       id="path3156" />
    <path
       style="fill:#d40000;stroke:#000000;stroke-width:1.42857146"
       d="m 1136.0714,557.22747 0,-27.85714 35,0 35,0 0,27.85714 0,27.85715 -35,0 -35,0 0,-27.85715 z"
       id="path3158" />
    <path
       style="fill:#d40000;stroke:#000000;stroke-width:1.42857146"
       d="m 1277.5,230.08462 0,-10.71429 92.8571,0 92.8571,0 0,10.71429 0,10.71428 -92.8571,0 -92.8571,0 0,-10.71428 z"
       id="path3160" />
    <path
       style="fill:#d40000;stroke:#000000;stroke-width:1.42857146"
       d="m 1278.9285,262.94176 0,-10.71429 179.2857,0 179.2858,0 0,10.71429 0,10.71429 -179.2858,0 -179.2857,0 0,-10.71429 z"
       id="path3162" />
    <path
       style="fill:#d40000;stroke:#000000;stroke-width:1.42857146"
       d="m 1277.5,296.51319 0,-11.42857 47.8571,0 47.8571,0 0,11.42857 0,11.42857 -47.8571,0 -47.8571,0 0,-11.42857 z"
       id="path3164" />
    <path
       style="fill:#d40000;stroke:#000000;stroke-width:1.42857146"
       d="m 1283.2142,549.37033 0,-11.42857 158.5715,0 158.5714,0 0,11.42857 0,11.42857 -158.5714,0 -158.5715,0 0,-11.42857 z"
       id="path3166" />
    <path
       style="fill:#d40000;stroke:#000000;stroke-width:1.42857146"
       d="m 1281.7857,582.22747 0,-11.42857 16.4285,0 16.4286,0 0,11.42857 0,11.42858 -16.4286,0 -16.4285,0 0,-11.42858 z"
       id="path3168" />
    <path
       style="fill:#008000;stroke:#000000;stroke-width:1.42857146"
       d="m 1280.3571,369.37033 0,-11.42857 32.1429,0 32.1428,0 0,11.42857 0,11.42857 -32.1428,0 -32.1429,0 0,-11.42857 z"
       id="path3170" />
    <path
       style="fill:#008000;stroke:#000000;stroke-width:1.42857146"
       d="m 1283.2142,423.65605 0,-11.42858 42.8572,0 42.8571,0 0,11.42858 0,11.42857 -42.8571,0 -42.8572,0 0,-11.42857 z"
       id="path3172" />
    <path
       style="fill:#008000;stroke:#000000;stroke-width:1.42857146"
       d="m 1280.3571,489.37033 0,-11.42857 91.4286,0 91.4285,0 0,11.42857 0,11.42857 -91.4285,0 -91.4286,0 0,-11.42857 z"
       id="path3174" />
    <path
       style="fill:#008000;stroke:#000000;stroke-width:1.42857146"
       d="m 1284.6428,783.65605 0,-11.42858 80.7143,0 80.7143,0 0,11.42858 0,11.42857 -80.7143,0 -80.7143,0 0,-11.42857 z"
       id="path3176" />
    <path
       style="fill:#008000;stroke:#000000;stroke-width:1.42857146"
       d="m 1286.0714,839.37033 0,-11.42857 32.1428,0 32.1429,0 0,11.42857 0,11.42857 -32.1429,0 -32.1428,0 0,-11.42857 z"
       id="path3178" />
    <path
       style="fill:none;stroke:#000000;stroke-width:1px;stroke-linecap:butt;stroke-linejoin:miter;stroke-opacity:1"
       d="m 1185.7143,549.50504 c 78.5714,11.42857 78.5714,11.42857 78.5714,11.42857"
       id="path3182" />
    <path
       style="fill:none;stroke:#000000;stroke-width:1px;stroke-linecap:butt;stroke-linejoin:miter;stroke-opacity:1"
       d="m 1182.8571,500.93361 c 81.4286,-12.85714 81.4286,-12.85714 81.4286,-12.85714 l 0,-1.42857"
       id="path3184" />
    <path
       style="fill:none;stroke:#000000;stroke-width:1px;stroke-linecap:butt;stroke-linejoin:miter;stroke-opacity:1"
       d="m 1184.2857,405.21933 c 88.5714,17.14285 88.5714,17.14285 88.5714,17.14285"
       id="path3186" />
    <path
       style="fill:none;stroke:#000000;stroke-width:1px;stroke-linecap:butt;stroke-linejoin:miter;stroke-opacity:1"
       d="m 1185.7143,323.79075 80,41.42858"
       id="path3188" />
    <path
       style="fill:none;stroke:#000000;stroke-width:1px;stroke-linecap:butt;stroke-linejoin:miter;stroke-opacity:1"
       d="m 1181.4286,259.50504 70,5.71429"
       id="path3190" />
    <path
       style="fill:none;stroke:#000000;stroke-width:1px;stroke-linecap:butt;stroke-linejoin:miter;stroke-opacity:1"
       d="m 1167.1429,208.07647 4.2857,232.85714"
       id="path3192" />
    <path
       style="fill:none;stroke:#000000;stroke-width:1px;stroke-linecap:butt;stroke-linejoin:miter;stroke-opacity:1"
       d="m 1172.8571,463.79075 0,132.85715"
       id="path3194" />
    <path
       style="fill:none;stroke:#000000;stroke-width:1px;stroke-linecap:butt;stroke-linejoin:miter;stroke-opacity:1"
       d="m 1187.1429,766.6479 31.4285,1.42857 7.1429,87.14286 -38.5714,-1.42858"
       id="path3196" />
    <path
       style="fill:none;stroke:#000000;stroke-width:1px;stroke-linecap:butt;stroke-linejoin:miter;stroke-opacity:1"
       d="m 1188.5714,806.6479 32.8572,0 0,0 -1.4286,-1.42857"
       id="path3198" />
    <path
       style="fill:#ffffff;stroke:#000000;stroke-width:1.42857146"
       d="m 1171.7857,401.51319 0,-32.14286 14.2857,0 14.2857,0 0,18.73364 0,18.73363 -6.6112,-0.99141 c -3.6362,-0.54528 -7.4933,-1.32991 -8.5714,-1.74362 -1.0782,-0.41371 -1.9603,-0.12421 -1.9603,0.64334 0,0.76755 3.8572,2.1544 8.5715,3.08187 l 8.5714,1.68633 0,12.07097 0,12.07097 -14.2857,0 -14.2857,0 0,-32.14286 z"
       id="path3200" />
    <path
       style="fill:#ffffff;stroke:#000000;stroke-width:1.42857146"
       d="m 1171.2575,360.44176 c -0.4738,-1.76786 -0.8702,-15.26786 -0.8809,-30 l -0.02,-26.78571 15,0 15,0 0,12.85714 c 0,7.07143 -0.347,12.85714 -0.7712,12.85714 -0.4242,0 -3.365,-1.32328 -6.5353,-2.94062 -8.9063,-4.54365 -9.3801,-2.60507 -0.5319,2.17623 l 7.8384,4.23561 0,15.40725 0,15.40725 -14.1191,0 c -13.4344,0 -14.1609,-0.15588 -14.9805,-3.21429 z"
       id="path3202" />
    <path
       style="fill:#ffffff;stroke:#000000;stroke-width:1.42857146"
       d="m 1169.8567,284.86515 c -0.5105,-7.19213 -0.9282,-24.54927 -0.9282,-38.57143 l 0,-25.49482 15.7143,0 15.7143,0 0,19.49291 0,19.49291 -10,-0.83836 c -5.5,-0.4611 -10,-0.31597 -10,0.3225 0,0.63848 4.5,1.60429 10,2.14624 l 10,0.98538 0,17.77064 0,17.77064 -14.7861,0 -14.7861,0 -0.9282,-13.07661 z"
       id="path3204" />
    <path
       style="fill:#ffffff;stroke:#000000;stroke-width:1.42857146"
       d="m 1174.6428,497.94176 0,-27.14286 15,0 15,0 0,12.7105 0,12.71049 -9.0456,1.57522 c -4.9751,0.86637 -10.1179,1.57522 -11.4286,1.57522 -1.3106,0 -2.3829,0.71255 -2.3829,1.58344 0,0.91586 1.3551,1.26165 3.2143,0.82017 1.7678,-0.41979 6.9107,-1.20641 11.4285,-1.74804 l 8.2143,-0.98478 0,13.02175 0,13.02175 -15,0 -15,0 0,-27.14286 z"
       id="path3206" />
    <path
       style="fill:#ffffff;stroke:#000000;stroke-width:1.42857146"
       d="m 1174.6428,557.22747 0,-26.42857 15,0 15,0 0,10.13406 0,10.13405 -7.5,-0.95167 c -4.125,-0.52342 -8.625,-1.26993 -10,-1.6589 -1.375,-0.38897 -2.5,-0.0814 -2.5,0.68357 0,0.76493 3.375,1.81904 7.5,2.34246 13.3394,1.69264 12.5,0.53291 12.5,17.26984 l 0,14.90374 -15,0 -15,0 0,-26.42858 z"
       id="path3208" />
    <flowRoot
       xml:space="preserve"
       id="flowRoot3210"
       style="font-size:18px;font-style:normal;font-weight:normal;fill:#000000;fill-opacity:1;stroke:none;font-family:Bitstream Vera Sans"><flowRegion
         id="flowRegion3212"><rect
           id="rect3214"
           width="700"
           height="434.28571"
           x="-755.71429"
           y="663.79077"
           style="font-size:18px" /></flowRegion><flowPara
         id="flowPara3216">for </flowPara></flowRoot>  </g>
</svg>
