/* XPM */
static char *gold[]={
"15 15 3 1",
"a c #000000",
"# c #ffff00",
". c #ffffff",
"...............",
"...............",
"....#######....",
".....#####.....",
"......aaa......",
"......aaa......",
"....#######....",
"...#########...",
"..###########..",
"..###########..",
"..###########..",
"...#########...",
"....#######....",
"...............",
"..............."};
