/* XPM */
static char *wall[]={
"15 15 2 1",
". c #800000",
"# c #808080",
"......###......",
"......###......",
"......###......",
"......###......",
"......###......",
"###############",
"###############",
"###############",
"##...........##",
"##...........##",
"##...........##",
"##...........##",
"##...........##",
"###############",
"###############"};
